<svg xmlns="http://www.w3.org/2000/svg" viewBox="0 0 1200 800" font-family="Inter, system-ui, -apple-system, sans-serif">
  <defs>
    <linearGradient id="bgGrad" x1="0%" y1="0%" x2="100%" y2="100%">
      <stop offset="0%" style="stop-color:#0a0f1c"/>
      <stop offset="100%" style="stop-color:#111827"/>
    </linearGradient>
    <linearGradient id="accentGrad" x1="0%" y1="0%" x2="100%" y2="0%">
      <stop offset="0%" style="stop-color:#3b82f6"/>
      <stop offset="50%" style="stop-color:#8b5cf6"/>
      <stop offset="100%" style="stop-color:#06b6d4"/>
    </linearGradient>
    <linearGradient id="greenGrad" x1="0%" y1="0%" x2="100%" y2="0%">
      <stop offset="0%" style="stop-color:#10b981"/>
      <stop offset="100%" style="stop-color:#22c55e"/>
    </linearGradient>
    <linearGradient id="purpleGrad" x1="0%" y1="0%" x2="100%" y2="0%">
      <stop offset="0%" style="stop-color:#8b5cf6"/>
      <stop offset="100%" style="stop-color:#a855f7"/>
    </linearGradient>
    <linearGradient id="orangeGrad" x1="0%" y1="0%" x2="100%" y2="0%">
      <stop offset="0%" style="stop-color:#f59e0b"/>
      <stop offset="100%" style="stop-color:#ef4444"/>
    </linearGradient>
    <filter id="glow">
      <feGaussianBlur stdDeviation="3" result="blur"/>
      <feMerge><feMergeNode in="blur"/><feMergeNode in="SourceGraphic"/></feMerge>
    </filter>
    <filter id="softGlow">
      <feGaussianBlur stdDeviation="6" result="blur"/>
      <feMerge><feMergeNode in="blur"/><feMergeNode in="SourceGraphic"/></feMerge>
    </filter>
  </defs>

  <!-- Background -->
  <rect width="1200" height="800" fill="url(#bgGrad)"/>

  <!-- Title -->
  <text x="600" y="42" text-anchor="middle" fill="url(#accentGrad)" font-size="22" font-weight="800" letter-spacing="-0.5">Astra OS — System Architecture</text>
  <text x="600" y="62" text-anchor="middle" fill="#64748b" font-size="11" font-weight="500">Voice-First AI Chief of Staff · 100% Google Cloud</text>

  <!-- ==================== BROWSER LAYER ==================== -->
  <rect x="30" y="82" width="380" height="290" rx="16" fill="#111827" stroke="#1e293b" stroke-width="1.5"/>
  <rect x="30" y="82" width="380" height="36" rx="16" fill="url(#accentGrad)" opacity="0.12"/>
  <text x="50" y="106" fill="#60a5fa" font-size="13" font-weight="700">BROWSER</text>
  <text x="345" y="106" fill="#475569" font-size="10">React + Vite</text>

  <!-- Audio Pipeline -->
  <rect x="46" y="130" width="168" height="72" rx="10" fill="#0f172a" stroke="#1e3a5f" stroke-width="1"/>
  <text x="130" y="150" text-anchor="middle" fill="#38bdf8" font-size="10" font-weight="700">AUDIO PIPELINE</text>
  <text x="130" y="166" text-anchor="middle" fill="#94a3b8" font-size="9">Mic → PCM16 16kHz</text>
  <text x="130" y="180" text-anchor="middle" fill="#94a3b8" font-size="9">Speaker ← PCM16 24kHz</text>
  <text x="130" y="194" text-anchor="middle" fill="#64748b" font-size="8">AudioWorklet Processors</text>

  <!-- AI Avatar -->
  <rect x="226" y="130" width="168" height="72" rx="10" fill="#0f172a" stroke="#3b1f6e" stroke-width="1"/>
  <text x="310" y="150" text-anchor="middle" fill="#a78bfa" font-size="10" font-weight="700">AI AVATAR</text>
  <text x="310" y="166" text-anchor="middle" fill="#94a3b8" font-size="9">FFT Lip-Sync (60fps)</text>
  <text x="310" y="180" text-anchor="middle" fill="#94a3b8" font-size="9">State Rings + Glow</text>
  <text x="310" y="194" text-anchor="middle" fill="#64748b" font-size="8">Imagen 4 Portrait</text>

  <!-- Dashboard -->
  <rect x="46" y="214" width="168" height="72" rx="10" fill="#0f172a" stroke="#1e3a5f" stroke-width="1"/>
  <text x="130" y="234" text-anchor="middle" fill="#38bdf8" font-size="10" font-weight="700">DASHBOARD</text>
  <text x="130" y="250" text-anchor="middle" fill="#94a3b8" font-size="9">KPIs · Tasks · CRM</text>
  <text x="130" y="264" text-anchor="middle" fill="#94a3b8" font-size="9">Email · Calendar · Brain</text>
  <text x="130" y="278" text-anchor="middle" fill="#64748b" font-size="8">Real-time Updates</text>

  <!-- Vision -->
  <rect x="226" y="214" width="168" height="72" rx="10" fill="#0f172a" stroke="#3b1f6e" stroke-width="1"/>
  <text x="310" y="234" text-anchor="middle" fill="#a78bfa" font-size="10" font-weight="700">VISION INPUT</text>
  <text x="310" y="250" text-anchor="middle" fill="#94a3b8" font-size="9">Camera JPEG Frames</text>
  <text x="310" y="264" text-anchor="middle" fill="#94a3b8" font-size="9">Screen Share 768×768</text>
  <text x="310" y="278" text-anchor="middle" fill="#64748b" font-size="8">1 FPS Streaming</text>

  <!-- Transcript bar -->
  <rect x="46" y="298" width="348" height="28" rx="8" fill="#0f172a" stroke="#1e293b" stroke-width="1"/>
  <text x="220" y="316" text-anchor="middle" fill="#64748b" font-size="9">Live Transcript · Voice Commands · Tool Status Pills</text>

  <rect x="46" y="338" width="348" height="22" rx="6" fill="#0f172a" stroke="#1e293b" stroke-width="1"/>
  <text x="220" y="353" text-anchor="middle" fill="#475569" font-size="8">Voice Bar: Status · Mute · Share · Timer</text>

  <!-- ==================== CONNECTION ARROW ==================== -->
  <line x1="420" y1="227" x2="460" y2="227" stroke="url(#accentGrad)" stroke-width="2" filter="url(#glow)"/>
  <polygon points="458,222 468,227 458,232" fill="#3b82f6" filter="url(#glow)"/>
  <text x="444" y="215" text-anchor="middle" fill="#60a5fa" font-size="8" font-weight="600">WS</text>
  <text x="444" y="242" text-anchor="middle" fill="#475569" font-size="7">Binary PCM</text>
  <text x="444" y="252" text-anchor="middle" fill="#475569" font-size="7">+ JSON</text>

  <!-- ==================== BACKEND LAYER ==================== -->
  <rect x="470" y="82" width="370" height="420" rx="16" fill="#111827" stroke="#1e293b" stroke-width="1.5"/>
  <rect x="470" y="82" width="370" height="36" rx="16" fill="url(#greenGrad)" opacity="0.12"/>
  <text x="490" y="106" fill="#34d399" font-size="13" font-weight="700">FASTAPI BACKEND</text>
  <text x="770" y="106" fill="#475569" font-size="10">Cloud Run</text>

  <!-- GeminiLiveBridge -->
  <rect x="486" y="130" width="338" height="62" rx="10" fill="#0f172a" stroke="#065f46" stroke-width="1.5"/>
  <text x="655" y="150" text-anchor="middle" fill="#34d399" font-size="11" font-weight="700">GeminiLiveBridge</text>
  <text x="655" y="166" text-anchor="middle" fill="#94a3b8" font-size="9">WebSocket Proxy · Audio Routing · Tool Dispatch · Transcript Events</text>
  <text x="655" y="180" text-anchor="middle" fill="#64748b" font-size="8">Proactive Alert Injection · Post-Session Summarization</text>

  <!-- Multi-Agent System -->
  <rect x="486" y="204" width="338" height="120" rx="10" fill="#0f172a" stroke="#4c1d95" stroke-width="1.5"/>
  <text x="655" y="224" text-anchor="middle" fill="#a78bfa" font-size="11" font-weight="700">Multi-Agent System (Google ADK)</text>

  <!-- VoiceAgent -->
  <rect x="498" y="236" width="148" height="40" rx="8" fill="#1e1b4b" stroke="#6d28d9" stroke-width="1"/>
  <circle cx="512" cy="256" r="5" fill="#22c55e"/>
  <text x="520" y="252" fill="#c4b5fd" font-size="9" font-weight="700">VoiceAgent</text>
  <text x="520" y="266" fill="#94a3b8" font-size="8">51 Tools · Live Audio</text>

  <!-- EmailScanner -->
  <rect x="498" y="282" width="148" height="30" rx="8" fill="#1e1b4b" stroke="#4c1d95" stroke-width="1"/>
  <circle cx="512" cy="297" r="4" fill="#f59e0b"/>
  <text x="520" y="301" fill="#c4b5fd" font-size="8" font-weight="600">EmailScannerAgent (BG)</text>

  <!-- RiskMonitor -->
  <rect x="660" y="236" width="152" height="40" rx="8" fill="#1e1b4b" stroke="#6d28d9" stroke-width="1"/>
  <circle cx="674" cy="256" r="5" fill="#f59e0b"/>
  <text x="682" y="252" fill="#c4b5fd" font-size="9" font-weight="700">RiskMonitor</text>
  <text x="682" y="266" fill="#94a3b8" font-size="8">Alerts · Overdue · Risk</text>

  <!-- 51 Tools badge -->
  <rect x="660" y="282" width="152" height="30" rx="8" fill="#1e1b4b" stroke="#4c1d95" stroke-width="1"/>
  <text x="736" y="301" text-anchor="middle" fill="#e9d5ff" font-size="9" font-weight="700">51+ FunctionTools</text>

  <!-- Company Brain -->
  <rect x="486" y="336" width="338" height="80" rx="10" fill="#0f172a" stroke="#b45309" stroke-width="1.5"/>
  <text x="655" y="356" text-anchor="middle" fill="#fbbf24" font-size="11" font-weight="700">Company Brain (Firestore)</text>
  <rect x="498" y="365" width="76" height="22" rx="6" fill="#1c1917" stroke="#78350f" stroke-width="1"/>
  <text x="536" y="380" text-anchor="middle" fill="#d97706" font-size="8" font-weight="600">Insights</text>
  <rect x="580" y="365" width="76" height="22" rx="6" fill="#1c1917" stroke="#78350f" stroke-width="1"/>
  <text x="618" y="380" text-anchor="middle" fill="#d97706" font-size="8" font-weight="600">Tasks</text>
  <rect x="662" y="365" width="76" height="22" rx="6" fill="#1c1917" stroke="#78350f" stroke-width="1"/>
  <text x="700" y="380" text-anchor="middle" fill="#d97706" font-size="8" font-weight="600">CRM</text>
  <rect x="744" y="365" width="68" height="22" rx="6" fill="#1c1917" stroke="#78350f" stroke-width="1"/>
  <text x="778" y="380" text-anchor="middle" fill="#d97706" font-size="8" font-weight="600">Alerts</text>
  <text x="655" y="405" text-anchor="middle" fill="#94a3b8" font-size="8">Vector Search (text-embedding-004, 768-dim, Cosine) · Email Routing · Teams</text>

  <!-- Google Workspace -->
  <rect x="486" y="428" width="338" height="56" rx="10" fill="#0f172a" stroke="#1e293b" stroke-width="1"/>
  <text x="655" y="448" text-anchor="middle" fill="#94a3b8" font-size="10" font-weight="700">Google Workspace APIs</text>
  <text x="530" y="470" text-anchor="middle" fill="#60a5fa" font-size="9" font-weight="600">Gmail</text>
  <text x="590" y="470" text-anchor="middle" fill="#22c55e" font-size="9" font-weight="600">Calendar</text>
  <text x="655" y="470" text-anchor="middle" fill="#38bdf8" font-size="9" font-weight="600">Drive</text>
  <text x="715" y="470" text-anchor="middle" fill="#a78bfa" font-size="9" font-weight="600">Tasks</text>
  <text x="785" y="470" text-anchor="middle" fill="#f472b6" font-size="9" font-weight="600">Contacts</text>

  <!-- ==================== GEMINI LAYER ==================== -->
  <rect x="870" y="82" width="300" height="180" rx="16" fill="#111827" stroke="#1e293b" stroke-width="1.5"/>
  <rect x="870" y="82" width="300" height="36" rx="16" fill="url(#purpleGrad)" opacity="0.15"/>
  <text x="890" y="106" fill="#c084fc" font-size="13" font-weight="700">GEMINI AI</text>
  <text x="1100" y="106" fill="#475569" font-size="10">Google AI</text>

  <rect x="886" y="130" width="268" height="52" rx="10" fill="#1e1b4b" stroke="#6d28d9" stroke-width="1.5"/>
  <text x="1020" y="150" text-anchor="middle" fill="#e9d5ff" font-size="11" font-weight="700">Gemini 2.5 Flash Native Audio</text>
  <text x="1020" y="166" text-anchor="middle" fill="#94a3b8" font-size="9">Live API · PCM16 In/Out · VAD · 8 Voices · Tool Calls</text>

  <rect x="886" y="194" width="130" height="44" rx="8" fill="#0f172a" stroke="#4c1d95" stroke-width="1"/>
  <text x="951" y="214" text-anchor="middle" fill="#c4b5fd" font-size="9" font-weight="700">Gemini 2.0 Flash</text>
  <text x="951" y="228" text-anchor="middle" fill="#94a3b8" font-size="8">Email Analysis</text>

  <rect x="1024" y="194" width="130" height="44" rx="8" fill="#0f172a" stroke="#4c1d95" stroke-width="1"/>
  <text x="1089" y="214" text-anchor="middle" fill="#c4b5fd" font-size="9" font-weight="700">text-embedding-004</text>
  <text x="1089" y="228" text-anchor="middle" fill="#94a3b8" font-size="8">768-dim Vectors</text>

  <!-- Connection: Backend → Gemini -->
  <line x1="840" y1="161" x2="870" y2="156" stroke="url(#purpleGrad)" stroke-width="2" filter="url(#glow)"/>
  <polygon points="868,151 878,156 868,161" fill="#8b5cf6" filter="url(#glow)"/>

  <!-- ==================== GOOGLE CLOUD SERVICES ==================== -->
  <rect x="870" y="290" width="300" height="212" rx="16" fill="#111827" stroke="#1e293b" stroke-width="1.5"/>
  <rect x="870" y="290" width="300" height="36" rx="16" fill="url(#greenGrad)" opacity="0.12"/>
  <text x="890" y="314" fill="#34d399" font-size="13" font-weight="700">GOOGLE CLOUD</text>
  <text x="1100" y="314" fill="#475569" font-size="10">Infrastructure</text>

  <rect x="886" y="338" width="130" height="44" rx="8" fill="#0f172a" stroke="#065f46" stroke-width="1"/>
  <text x="951" y="356" text-anchor="middle" fill="#34d399" font-size="10" font-weight="700">Cloud Run</text>
  <text x="951" y="372" text-anchor="middle" fill="#94a3b8" font-size="8">Auto-scale · WebSocket</text>

  <rect x="1024" y="338" width="130" height="44" rx="8" fill="#0f172a" stroke="#065f46" stroke-width="1"/>
  <text x="1089" y="356" text-anchor="middle" fill="#34d399" font-size="10" font-weight="700">Cloud Build</text>
  <text x="1089" y="372" text-anchor="middle" fill="#94a3b8" font-size="8">CI/CD Pipeline</text>

  <rect x="886" y="392" width="130" height="44" rx="8" fill="#0f172a" stroke="#b45309" stroke-width="1"/>
  <text x="951" y="410" text-anchor="middle" fill="#fbbf24" font-size="10" font-weight="700">Firestore</text>
  <text x="951" y="426" text-anchor="middle" fill="#94a3b8" font-size="8">Vector Search · Data</text>

  <rect x="1024" y="392" width="130" height="44" rx="8" fill="#0f172a" stroke="#065f46" stroke-width="1"/>
  <text x="1089" y="410" text-anchor="middle" fill="#34d399" font-size="10" font-weight="700">Secret Manager</text>
  <text x="1089" y="426" text-anchor="middle" fill="#94a3b8" font-size="8">API Keys · Tokens</text>

  <rect x="886" y="446" width="268" height="38" rx="8" fill="#0f172a" stroke="#065f46" stroke-width="1"/>
  <text x="1020" y="466" text-anchor="middle" fill="#34d399" font-size="10" font-weight="700">Artifact Registry</text>
  <text x="1020" y="478" text-anchor="middle" fill="#94a3b8" font-size="8">Docker Image Storage</text>

  <!-- ==================== DATA FLOW LABELS ==================== -->

  <!-- Browser ↔ Backend flow -->
  <text x="220" y="400" text-anchor="middle" fill="#60a5fa" font-size="9" font-weight="700">WebSocket /ws/interview/{id}</text>
  <text x="220" y="414" text-anchor="middle" fill="#475569" font-size="8">Binary: PCM16 audio + JPEG frames</text>
  <text x="220" y="426" text-anchor="middle" fill="#475569" font-size="8">JSON: transcript · status · tool_call · error</text>

  <!-- Backend ↔ Cloud connection lines -->
  <line x1="840" y1="370" x2="870" y2="360" stroke="#22c55e" stroke-width="1" stroke-dasharray="4,4" opacity="0.5"/>
  <line x1="840" y1="410" x2="870" y2="410" stroke="#f59e0b" stroke-width="1" stroke-dasharray="4,4" opacity="0.5"/>

  <!-- ==================== BOTTOM BAR ==================== -->
  <rect x="30" y="520" width="1140" height="58" rx="12" fill="#111827" stroke="#1e293b" stroke-width="1"/>
  <text x="600" y="542" text-anchor="middle" fill="url(#accentGrad)" font-size="12" font-weight="800">THE "BEYOND TEXT" FACTOR</text>
  <text x="150" y="564" text-anchor="middle" fill="#94a3b8" font-size="9">Voice + Vision + Memory</text>
  <text x="150" y="574" text-anchor="middle" fill="#64748b" font-size="8">simultaneously</text>
  <text x="380" y="564" text-anchor="middle" fill="#94a3b8" font-size="9">Natural Barge-in</text>
  <text x="380" y="574" text-anchor="middle" fill="#64748b" font-size="8">Native VAD, zero latency</text>
  <text x="600" y="564" text-anchor="middle" fill="#94a3b8" font-size="9">51 Tools During Live Audio</text>
  <text x="600" y="574" text-anchor="middle" fill="#64748b" font-size="8">Not post-session, real-time</text>
  <text x="820" y="564" text-anchor="middle" fill="#94a3b8" font-size="9">Proactive Intelligence</text>
  <text x="820" y="574" text-anchor="middle" fill="#64748b" font-size="8">Background agents, auto-alerts</text>
  <text x="1050" y="564" text-anchor="middle" fill="#94a3b8" font-size="9">Zero Third-Party AI</text>
  <text x="1050" y="574" text-anchor="middle" fill="#64748b" font-size="8">One API key, one platform</text>

  <!-- Dividers in bottom bar -->
  <line x1="265" y1="548" x2="265" y2="578" stroke="#1e293b" stroke-width="1"/>
  <line x1="490" y1="548" x2="490" y2="578" stroke="#1e293b" stroke-width="1"/>
  <line x1="710" y1="548" x2="710" y2="578" stroke="#1e293b" stroke-width="1"/>
  <line x1="935" y1="548" x2="935" y2="578" stroke="#1e293b" stroke-width="1"/>

  <!-- Footer -->
  <text x="600" y="605" text-anchor="middle" fill="#334155" font-size="9">Astra OS · Gemini Live Agent Challenge · March 2026</text>
</svg>
